<svg width="17" height="17" viewBox="0 0 17 17" fill="none" xmlns="http://www.w3.org/2000/svg">
<path d="M5.11739 6.45899C5.37524 6.30742 5.69755 6.22081 6.08433 6.22081C6.47111 6.22081 6.79342 6.30742 7.05127 6.45899C7.30913 6.61056 7.50251 6.80544 7.60995 7.04362C7.73888 7.2818 7.80334 7.56329 7.80334 7.86643H4.38681C4.38681 7.54164 4.45127 7.2818 4.5802 7.04362C4.68764 6.82709 4.85954 6.61056 5.11739 6.45899Z" fill="white"/>
<path d="M16.162 10.703L10.962 15.9863C10.7042 16.2245 10.3604 16.376 9.99509 16.376C9.6298 16.376 9.28599 16.2245 9.04962 15.9863L7.45955 14.384C8.03971 14.319 8.53393 14.2107 8.96368 14.0375C9.60831 13.7777 10.2529 13.3446 10.8976 12.76L8.79178 10.8329C8.44798 11.136 8.12566 11.3525 7.80335 11.5041C7.48103 11.634 7.00831 11.7206 6.42815 11.7206C5.80501 11.7206 5.31079 11.5691 4.9455 11.2443C4.58021 10.9195 4.4083 10.5297 4.4083 10.075H11.2843V8.62427C11.2843 7.67154 11.0909 6.80543 10.6827 6.04757C10.2744 5.28972 9.69426 4.68344 8.89922 4.25038C8.12567 3.79567 7.18021 3.57914 6.10583 3.57914C4.58021 3.57914 3.33392 4.05551 2.38846 5.00823C1.67937 5.72278 1.24963 6.6322 1.05624 7.75816C0.712437 7.21683 0.497559 6.50229 0.497559 5.93931V1.47881C0.497559 0.720953 1.1207 0.0930176 1.85128 0.0930176H6.25624C7.0083 0.0930176 8.03971 0.526076 8.5769 1.0674L16.162 8.73254C16.3984 8.99237 16.5488 9.33882 16.5488 9.70692C16.5488 10.0967 16.3984 10.4431 16.162 10.703Z" fill="white"/>
<path d="M16.162 10.703L10.962 15.9863C10.7042 16.2245 10.3604 16.376 9.99509 16.376C9.6298 16.376 9.28599 16.2245 9.04962 15.9863L7.45955 14.384C8.03971 14.319 8.53393 14.2107 8.96368 14.0375C9.60831 13.7777 10.2529 13.3446 10.8976 12.76L8.79178 10.8329C8.44798 11.136 8.12566 11.3525 7.80335 11.5041C7.48103 11.634 7.00831 11.7206 6.42815 11.7206C5.80501 11.7206 5.31079 11.5691 4.9455 11.2443C4.58021 10.9195 4.4083 10.5297 4.4083 10.075H11.2843V8.62427C11.2843 7.67154 11.0909 6.80543 10.6827 6.04757C10.2744 5.28972 9.69426 4.68344 8.89922 4.25038C8.12567 3.79567 7.18021 3.57914 6.10583 3.57914C4.58021 3.57914 3.33392 4.05551 2.38846 5.00823C1.67937 5.72278 1.24963 6.6322 1.05624 7.75816C0.712437 7.21683 0.497559 6.50229 0.497559 5.93931V1.47881C0.497559 0.720953 1.1207 0.0930176 1.85128 0.0930176H6.25624C7.0083 0.0930176 8.03971 0.526076 8.5769 1.0674L16.162 8.73254C16.3984 8.99237 16.5488 9.33882 16.5488 9.70692C16.5488 10.0967 16.3984 10.4431 16.162 10.703Z" fill="white"/>
</svg>
